HIERARCHY
ROOT pelvis
{
  OFFSET 0 100 0
  CHANNELS 6 Xposition Yposition Zposition Zrotation Xrotation Yrotation
  JOINT pelvis_right_femur
  {
    OFFSET -10.78128 -3.44521 -0.5502486
    CHANNELS 3 Zrotation Xrotation Yrotation
    JOINT right_femur_tibia
    {
      OFFSET -0.8047443 -44.0398 -0.1307829
      CHANNELS 3 Zrotation Xrotation Yrotation
      JOINT right_tibia_foot
      {
        OFFSET 3.006224 -47.83518 -5
        CHANNELS 3 Zrotation Xrotation Yrotation
        End Site
        {
          OFFSET 0 -5 15
        }
      }
    }
  }
  JOINT pelvis_left_femur
  {
    OFFSET 10.78128 -3.44521 -0.5502486
    CHANNELS 3 Zrotation Xrotation Yrotation
    JOINT left_femur_tibia
    {
      OFFSET 0.8047443 -44.0398 -0.1307829
      CHANNELS 3 Zrotation Xrotation Yrotation
      JOINT left_tibia_foot
      {
        OFFSET -4.370144 -48.10324 -4.275266
        CHANNELS 3 Zrotation Xrotation Yrotation
        End Site
        {
          OFFSET 0 -5 15
        }
      }
    }
  }
  JOINT pelvis_spine1
  {
    OFFSET 0 6.468898 -3.129235
    CHANNELS 3 Zrotation Xrotation Yrotation
    JOINT spine1
    {
      OFFSET 0 23.15396 4.99043
      CHANNELS 3 Zrotation Xrotation Yrotation
      JOINT spine2
      {
        OFFSET 0 20.79997 -5.064912
        CHANNELS 3 Zrotation Xrotation Yrotation
        JOINT neck
        {
          OFFSET 0 14.38658 9.616178
          CHANNELS 3 Zrotation Xrotation Yrotation
          End Site
          {
            OFFSET 0 20 0
          }
        }
      }
      JOINT right_manubrium
      {
        OFFSET -5.722621 16.35077 3.967754
        CHANNELS 3 Zrotation Xrotation Yrotation
        JOINT right_clavicle
        {
          OFFSET -13.16364 1.694482 -4.693211
          CHANNELS 3 Zrotation Xrotation Yrotation
          JOINT right_humerus
          {
            OFFSET -28.5034 -0.3100689 -2.792744
            CHANNELS 3 Zrotation Xrotation Yrotation
            JOINT right_radius
            {
              OFFSET -25.15693 0.02248979 -1.271978
              CHANNELS 3 Zrotation Xrotation Yrotation
              End Site
              {
                OFFSET -15 0 0
              }
            }
          }
        }
      }
      JOINT left_manubrium
      {
        OFFSET 5.722621 16.35077 3.967754
        CHANNELS 3 Zrotation Xrotation Yrotation
        JOINT left_clavicle
        {
          OFFSET 13.16364 1.694482 -4.693211
          CHANNELS 3 Zrotation Xrotation Yrotation
          JOINT left_humerus
          {
            OFFSET 29.39168 -1.063119 -2.237045
            CHANNELS 3 Zrotation Xrotation Yrotation
            JOINT left_radius
            {
              OFFSET 24.59957 -0.9528479 0.9047498
              CHANNELS 3 Zrotation Xrotation Yrotation
              End Site
              {
                OFFSET 15 -0 -0
              }
            }
          }
        }
      }
    }
  }
}
MOTION
Frames: 11
Frame Time: 0.0416666666667
30.97211 140.9587 272.3669 1.332936 -4.857827 -5.45555 0.5117538 6.782753 3.353382 -0 2.885929 -0 4.547651 -12.79957 -1.023902 -2.763841 -7.380677 -6.134767 -0 17.7588 -0 -6.505904 -9.543613 15.97321 -1.442041 -1.96293 6.889125 0.03729973 8.84424 -4.772821 2.223417 21.32214 5.495884 1.695708 -15.54587 7.53784 1.156553 -18.16574 10.3432 83.58844 24.62417 -11.58113 -0 0 18.68381 -23.46524 14.38177 12.02285 5.875104 -17.28223 -3.392632 -88.12816 21.79733 16.29581 0 0 -17.73744 -0.2139476 8.149805 12.82544
31.10748 140.3808 279.606 1.328208 -5.017531 -5.653924 0.3781042 6.740964 3.268166 -0 3.892115 -0 4.620873 -13.32186 -1.124736 -2.73039 -7.705442 -6.261934 -0 16.12517 -0 -6.507285 -10.06053 16.04834 -1.498244 -1.796776 6.836434 -0.05287531 8.635992 -4.63342 2.290603 21.46334 5.436438 1.606494 -15.40667 7.62745 0.9340887 -18.22496 10.22394 83.4843 24.35284 -11.09731 -0 0 19.05879 -23.42696 14.19989 12.02098 5.916231 -17.04333 -3.364349 -88.18721 21.99547 16.30058 0 0 -17.41034 -0.2763717 8.288276 12.82187
31.23739 139.6997 286.7858 1.319889 -5.174663 -5.804953 0.2669256 6.552705 3.173351 -0 4.766084 -0 4.610691 -13.81444 -1.252936 -2.702951 -7.876652 -6.391788 -0 14.63699 -0 -6.490086 -10.58116 16.11524 -1.55945 -1.626242 6.752309 -0.1242015 8.43348 -4.518999 2.358153 21.61595 5.37326 1.524067 -15.27027 7.710043 0.7189558 -18.2373 10.10454 83.43316 24.12188 -10.69786 -0 0 19.32598 -23.3406 14.0139 11.98738 5.964469 -16.85021 -3.33916 -88.19976 22.19888 16.19737 0 0 -17.1354 -0.2977162 8.456019 12.76318
31.35519 138.9186 293.9004 1.304629 -5.328043 -5.917148 0.1866653 6.195509 3.068272 -0 5.454892 -0 4.508536 -14.27713 -1.413435 -2.678306 -7.870562 -6.521055 -0 13.3408 -0 -6.458093 -11.09934 16.17156 -1.62232 -1.451617 6.633616 -0.1729591 8.239186 -4.433444 2.426365 21.77967 5.305568 1.449727 -15.13767 7.783941 0.5133207 -18.19597 9.986503 83.43993 23.9349 -10.39896 -0 0 19.46833 -23.20002 13.8258 11.9164 6.021805 -16.71202 -3.317666 -88.158 22.40508 15.96948 0 0 -16.92822 -0.2717114 8.654922 12.64172
31.45157 138.0406 300.9443 1.279871 -5.476787 -6.000614 0.1424861 5.658943 2.95309 -0 5.924843 -0 4.310604 -14.70975 -1.608857 -2.653756 -7.675683 -6.647211 -0 12.26659 -0 -6.414371 -11.60961 16.21595 -1.684141 -1.273526 6.479352 -0.1970801 8.055114 -4.378795 2.495321 21.95367 5.232971 1.384302 -15.00982 7.848002 0.3188548 -18.09801 9.871267 83.50623 23.79334 -10.20958 -0 0 19.47721 -23.00266 13.63719 11.80539 6.089269 -16.63404 -3.300224 -88.05814 22.61131 15.60927 0 0 -16.79811 -0.1948288 8.885096 12.45359
31.51538 137.0696 307.9123 1.243867 -5.620301 -6.066227 0.1364355 4.944313 2.828811 -0 6.16079 -0 4.017605 -15.11198 -1.839425 -2.627224 -7.292445 -6.76852 -0 11.42846 -0 -6.361196 -12.10715 16.24809 -1.742834 -1.092896 6.290548 -0.1960709 7.882816 -4.355316 2.564882 22.13664 5.155482 1.3282 -14.88761 7.901594 0.1367217 -17.94425 9.760121 83.63066 23.69643 -10.13185 -0 0 19.35205 -22.7495 13.44924 11.6546 6.166967 -16.61785 -3.286958 -87.90042 22.81444 15.11793 0 0 -16.74816 -0.06615072 9.144973 12.19846
31.53457 136.0094 314.8003 1.195607 -5.758262 -6.124932 0.1679253 4.063687 2.697093 -0 6.163774 -0 3.634052 -15.4831 -2.10299 -2.597265 -6.732168 -6.883979 -0 10.82662 -0 -6.300042 -12.58755 16.2688 -1.796877 -0.9108952 6.070014 -0.1708254 7.723483 -4.361663 2.634676 22.32689 5.07353 1.281527 -14.77201 7.944506 -0.03238388 -17.73886 9.654212 83.80933 23.64155 -10.16173 -0 0 19.09934 -22.44467 13.26266 11.46695 6.254194 -16.66175 -3.277798 -87.689 23.01102 14.5047 0 0 -16.77565 0.1129945 9.431606 11.87908
31.49701 134.8642 321.6044 1.13474 -5.890605 -6.18717 0.2342468 3.039411 2.559918 -0 5.948623 -0 3.167464 -15.82164 -2.394956 -2.563011 -6.01649 -6.993226 -0 10.44961 -0 -6.231542 -13.04638 16.28021 -1.845209 -0.7288494 5.822148 -0.1234716 7.578102 -4.394987 2.704072 22.52253 4.987995 1.244263 -14.6641 7.976846 -0.1881737 -17.4891 9.55458 84.03604 23.62447 -10.28955 -0 0 18.73179 -22.09535 13.07757 11.24796 6.349538 -16.76119 -3.272516 -87.43182 23.19723 13.78645 0 0 -16.87221 0.3393958 9.741017 11.50073
31.39146 133.6388 328.3216 1.06154 -6.017524 -6.262411 0.3309623 1.904603 2.419174 -0 5.542383 -0 2.62776 -16.125 -2.707958 -2.5241 -5.177776 -7.096427 -0 10.27573 -0 -6.155394 -13.47874 16.28615 -1.887126 -0.5481815 5.552874 -0.05732017 7.447639 -4.450887 2.772122 22.72149 4.900301 1.216441 -14.56535 7.998935 -0.3307051 -17.20538 9.462221 84.30216 23.63967 -10.49997 -0 0 18.26791 -21.71188 12.89343 11.00592 6.450929 -16.90897 -3.270776 -87.1409 23.36897 12.98787 0 0 -17.02353 0.6081946 10.06849 11.07093
31.20853 132.3384 334.9492 0.9769015 -6.139502 -6.358746 0.4521574 0.7042531 2.276211 -0 4.98354 -0 2.026861 -16.38898 -3.031435 -2.480604 -4.260118 -7.194163 -0 10.27392 -0 -6.070224 -13.87862 16.29254 -1.922185 -0.3703688 5.269705 0.02311305 7.33323 -4.52329 2.837478 22.92166 4.812531 1.198318 -14.47768 8.011228 -0.4603297 -16.90142 9.378161 84.59629 23.68055 -10.77164 -0 0 17.73205 -21.30806 12.7089 10.75226 6.555636 -17.09528 -3.272173 -86.83273 23.52185 12.14216 0 0 -17.20875 0.9129913 10.40881 10.59929
30.94174 130.969 341.4852 0.882337 -6.257311 -6.482548 0.5906672 -0.5045048 2.131462 -0 4.32108 -0 1.378374 -16.60767 -3.351418 -2.432976 -3.319552 -7.2873 -0 10.4046 -0 -5.973533 -14.23865 16.30758 -1.950147 -0.1969119 4.981718 0.1121388 7.236314 -4.60443 2.898359 23.12091 4.727477 1.190479 -14.40366 8.014251 -0.5776521 -16.59431 9.303504 84.90404 23.73972 -11.07712 -0 0 17.15415 -20.90124 12.52191 10.50157 6.660296 -17.30785 -3.276271 -86.52827 23.65144 11.29121 0 0 -17.40025 1.245946 10.75649 10.09734
